<svg width="11" height="6" viewBox="0 0 11 6" fill="none" xmlns="http://www.w3.org/2000/svg">
<path d="M5.21251 6C5.41819 5.99412 5.59449 5.91773 5.75316 5.75906L10.2252 1.18707C10.3545 1.05191 10.425 0.893242 10.425 0.699314C10.425 0.305583 10.1195 0 9.72573 0C9.53768 0 9.36139 0.0763957 9.22622 0.211557L5.21251 4.32517L1.1988 0.211557C1.06364 0.0763957 0.893217 0 0.699289 0C0.305557 0 -2.47955e-05 0.305583 -2.47955e-05 0.699314C-2.47955e-05 0.887365 0.0704937 1.05191 0.199779 1.18707L4.67774 5.75906C4.83053 5.9236 5.00683 6 5.21251 6Z" fill="#343434"/>
</svg>
