<svg width="21" height="24" viewBox="0 0 21 24" fill="none" xmlns="http://www.w3.org/2000/svg">
<path d="M7.7873 8.79907C7.99948 8.79907 8.20296 8.88336 8.35299 9.03339C8.50302 9.18342 8.5873 9.3869 8.5873 9.59907V19.1991C8.5873 19.4112 8.50302 19.6147 8.35299 19.7648C8.20296 19.9148 7.99948 19.9991 7.7873 19.9991C7.57513 19.9991 7.37165 19.9148 7.22162 19.7648C7.07159 19.6147 6.9873 19.4112 6.9873 19.1991V9.59907C6.9873 9.3869 7.07159 9.18342 7.22162 9.03339C7.37165 8.88336 7.57513 8.79907 7.7873 8.79907ZM13.814 9.59907C13.814 9.3869 13.7297 9.18342 13.5797 9.03339C13.4296 8.88336 13.2261 8.79907 13.014 8.79907C12.8018 8.79907 12.5983 8.88336 12.4483 9.03339C12.2983 9.18342 12.214 9.3869 12.214 9.59907V19.1991C12.214 19.4112 12.2983 19.6147 12.4483 19.7648C12.5983 19.9148 12.8018 19.9991 13.014 19.9991C13.2261 19.9991 13.4296 19.9148 13.5797 19.7648C13.7297 19.6147 13.814 19.4112 13.814 19.1991V9.59907Z" fill="#343434"/>
<path fill-rule="evenodd" clip-rule="evenodd" d="M20.8 4.8C20.8 5.22435 20.6314 5.63131 20.3314 5.93137C20.0313 6.23143 19.6243 6.4 19.2 6.4H18.4V20.8C18.4 21.6487 18.0629 22.4626 17.4627 23.0627C16.8626 23.6629 16.0487 24 15.2 24H5.6C4.75131 24 3.93737 23.6629 3.33726 23.0627C2.73714 22.4626 2.4 21.6487 2.4 20.8V6.4H1.6C1.17565 6.4 0.768687 6.23143 0.468629 5.93137C0.168571 5.63131 0 5.22435 0 4.8V3.2C0 2.77565 0.168571 2.36869 0.468629 2.06863C0.768687 1.76857 1.17565 1.6 1.6 1.6H7.2C7.2 1.17565 7.36857 0.768687 7.66863 0.468629C7.96869 0.168571 8.37565 0 8.8 0L12 0C12.4243 0 12.8313 0.168571 13.1314 0.468629C13.4314 0.768687 13.6 1.17565 13.6 1.6H19.2C19.6243 1.6 20.0313 1.76857 20.3314 2.06863C20.6314 2.36869 20.8 2.77565 20.8 3.2V4.8ZM4.1888 6.4L4 6.4944V20.8C4 21.2243 4.16857 21.6313 4.46863 21.9314C4.76869 22.2314 5.17565 22.4 5.6 22.4H15.2C15.6243 22.4 16.0313 22.2314 16.3314 21.9314C16.6314 21.6313 16.8 21.2243 16.8 20.8V6.4944L16.6112 6.4H4.1888ZM1.6 4.8V3.2H19.2V4.8H1.6Z" fill="#343434"/>
</svg>
