<svg width="80" height="96" viewBox="0 0 80 96" fill="none" xmlns="http://www.w3.org/2000/svg">
<path d="M75.8 17.6283C69.5 16.7888 63.4 14.9618 57.7 12.246C51 9.08571 42.15 2.17267 42.05 2.12329L39.35 0L36.8 2.27143C32.3 6.3205 27.25 9.67826 21.8 12.246C16.1 14.9618 10 16.7394 3.7 17.6283L0 18.1221L0.25 21.8255C0.4 24.4919 0.65 27.109 1.05 29.7261L5.95 33.1826L1.85 34.7134C3.8 44.8854 7.35 54.7612 12.3 63.7481C18.55 75.1053 26.85 85.0304 37 93.2273L39.65 95.4L42.25 93.1286C42.85 92.6348 54.95 82.0183 63.4 69.9205L62.25 66.859L62.5 66.5134L64.65 68.0441C65.6 66.6121 66.45 65.1801 67.25 63.7481C68.35 61.7236 69.4 59.6991 70.35 57.6252L65.15 54.7612L71.85 54.1686C76.1 43.8978 78.65 32.8863 79.3 21.7761L79.5 18.0727L75.8 17.6283ZM51.05 20.986C51.05 21.4798 50.95 21.628 49.75 26.2696C49.1 28.7879 48.55 30.8618 48.2 32.195C47.15 32.0469 46.1 31.8494 45.1 31.7012C45 32.8863 44.9 34.0714 44.85 35.2071C47.85 36.491 50.85 37.7255 53.9 39.0093C56.2 45.6261 58.5 52.1935 60.8 58.8102C60.6 59.2053 60.4 59.5509 60.2 59.946C59.55 61.1311 58.85 62.2668 58.1 63.4519C56.55 59.8472 55.35 57.2301 53.65 54.218C54.1 57.8721 54.65 62.6618 55.15 67.6984C49.75 74.9078 43.1 81.4752 39.55 84.8329C35.75 81.5245 32.25 77.9199 29.05 74.0683C29.3 73.6733 29.55 73.2783 29.8 72.8832C31.4 70.4143 32.05 69.5748 32.55 68.6367L33.3 68.0935L32.9 67.8466C34.35 64.2913 34.3 58.3658 27.7 48.2925C26.75 49.7245 25.25 51.8478 23.5 54.5143C21.7 57.1807 20.5 59.0078 19.65 60.341C19.6 60.2422 19.55 60.1435 19.5 60.0447C18.4 58.0202 17.35 55.8969 16.4 53.7736C16.7 53.3292 17.05 52.8848 17.35 52.4404C22.05 45.873 25.15 39.6019 27.25 34.5652C30.2 34.1208 33.2 33.6764 36.15 33.2814V28.4916C36.15 28.4916 31.65 26.6646 31.65 19.9984C31.65 18.3196 31.95 16.8876 32.5 15.7519C34.8 14.3199 37 12.7891 39.1 11.1102C39.5 11.0115 39.9 10.9621 40.25 10.9127L50.15 17.0851C50.75 18.3196 51.1 19.7516 51.05 20.986ZM21.2 63.0075C21.9 61.9211 22.9 60.3904 24.45 58.0696L26.25 63.4519L24.55 62.3655L27.4 71.2043C27.35 71.2537 27.35 71.3031 27.3 71.3525C27.2 71.4512 27.15 71.5994 27.05 71.6981C24.95 68.8835 23 66.0196 21.2 63.0075ZM25.35 19.4553C26.55 18.9121 27.75 18.2702 28.9 17.6283C28.8 18.3196 28.75 19.0603 28.75 19.8009C28.75 25.4301 31.4 28.4422 33.25 29.8742V30.7137L29.6 31.2568L27.7 31.5531L24.65 21.5292L26.45 31.7506L25.15 31.9481L24.55 33.4295C23.6 35.7009 22.55 37.9724 21.4 40.1944L13.45 25.1832L19.6 43.4534C18.2 45.9224 16.65 48.2925 15.05 50.6134C11.7 42.4165 9.55 33.7258 8.65 24.887C14.4 23.8006 20 21.9736 25.35 19.4553ZM62.5 55.255L61.45 52.2429L64.25 48.1938L60.85 50.5146L60.6 49.7739L60.25 48.737L66.55 31.5531L58.65 44.2435L56.55 38.1205L56.45 37.8736L60.55 22.813L54.95 36.4416L52.5 35.4047L52.85 32.0963L51.75 35.1084L50.5 34.5652L50.95 32.9357C51.3 31.5531 51.85 29.5286 52.5 27.0103C52.75 26.1214 52.95 25.4301 53.1 24.8376C53.85 22.023 53.9 21.8255 53.9 21.0848C53.9 20.4922 53.85 19.8997 53.75 19.2578L54.15 19.5047C59.45 22.023 65.1 23.85 70.85 24.9363C69.9 35.4047 67.05 45.7742 62.5 55.255Z" fill="#00CC66"/>
<path d="M43.4 18.1719C43.1 18.1719 42.9 18.2213 42.75 18.2213C43.25 18.32 43.7 18.3694 44.2 18.4682C44.2 18.4682 44.6 19.3076 45.55 19.752C46.5 20.1964 48.4 19.752 48.4 19.752C48.4 19.752 46.9 18.32 46.45 18.0237C46.25 17.925 45.95 17.9744 43.4 18.1719Z" fill="#00CC66"/>
</svg>
