<svg width="40" height="32" viewBox="0 0 40 32" fill="none" xmlns="http://www.w3.org/2000/svg">
<path d="M32.4516 12.6381C32.2312 12.6383 32.0197 12.7259 31.8638 12.8818C31.7079 13.0377 31.6203 13.2491 31.6202 13.4696V24.1798C31.62 24.6659 31.4269 25.1321 31.0832 25.4758C30.7394 25.8195 30.2733 26.0127 29.7871 26.0128H9.69712C9.21101 26.0127 8.74485 25.8195 8.40111 25.4758C8.05738 25.1321 7.86422 24.6659 7.8641 24.1798V11.7392C7.86422 11.2531 8.05738 10.7869 8.40111 10.4432C8.74485 10.0995 9.21101 9.90631 9.69712 9.90618H12.3854C12.7651 9.90496 13.1382 9.8064 13.469 9.61991C13.7998 9.43342 14.0773 9.16524 14.2749 8.84096L15.7003 6.48721C15.7801 6.35709 15.8918 6.24951 16.0248 6.17467C16.1579 6.09984 16.3078 6.06023 16.4605 6.0596H22.1653C22.2746 6.05954 22.3828 6.03793 22.4838 5.996C22.5848 5.95407 22.6765 5.89266 22.7537 5.81526C22.8309 5.73786 22.8921 5.646 22.9338 5.54493C22.9755 5.44387 22.9969 5.33557 22.9967 5.22624C22.9966 5.00576 22.9089 4.79435 22.753 4.63844C22.5971 4.48254 22.3857 4.3949 22.1653 4.39478H16.4609C16.0217 4.39607 15.5901 4.51001 15.2075 4.72571C14.8248 4.9414 14.5039 5.25164 14.2754 5.62677L12.85 7.98004C12.8014 8.06035 12.7328 8.12676 12.651 8.17287C12.5692 8.21898 12.4769 8.24322 12.383 8.24326H9.69712C8.76997 8.24339 7.88084 8.61175 7.22525 9.26734C6.56966 9.92293 6.2013 10.8121 6.20117 11.7392V24.1798C6.2013 25.1069 6.56966 25.9961 7.22525 26.6516C7.88084 27.3072 8.76997 27.6756 9.69712 27.6757H29.7871C30.7143 27.6756 31.6034 27.3072 32.259 26.6516C32.9146 25.9961 33.283 25.1069 33.2831 24.1798V13.4696C33.283 13.2491 33.1953 13.0377 33.0394 12.8818C32.8835 12.7259 32.6721 12.6383 32.4516 12.6381Z" fill="black"/>
<path d="M13.7793 17.2945C13.7793 18.4691 14.1276 19.6174 14.7802 20.594C15.4328 21.5707 16.3603 22.3319 17.4456 22.7814C18.5308 23.2309 19.7249 23.3485 20.877 23.1194C22.029 22.8902 23.0872 22.3246 23.9178 21.494C24.7484 20.6634 25.3141 19.6052 25.5432 18.4531C25.7724 17.3011 25.6548 16.1069 25.2053 15.0217C24.7557 13.9365 23.9945 13.009 23.0179 12.3564C22.0412 11.7038 20.8929 11.3555 19.7183 11.3555C18.1437 11.3572 16.6341 11.9835 15.5207 13.0969C14.4073 14.2103 13.7811 15.7199 13.7793 17.2945ZM23.9944 17.2945C23.9944 18.1402 23.7436 18.967 23.2738 19.6702C22.8039 20.3734 22.1361 20.9214 21.3547 21.2451C20.5734 21.5687 19.7136 21.6534 18.8841 21.4884C18.0546 21.3234 17.2927 20.9162 16.6947 20.3181C16.0966 19.7201 15.6894 18.9582 15.5244 18.1287C15.3594 17.2992 15.4441 16.4395 15.7677 15.6581C16.0914 14.8767 16.6394 14.2089 17.3426 13.739C18.0458 13.2692 18.8726 13.0184 19.7183 13.0184C20.852 13.0197 21.9389 13.4706 22.7406 14.2722C23.5422 15.0739 23.9931 16.1608 23.9944 17.2945Z" fill="black"/>
<path d="M32.522 6.23592H30.8354V4.54924C30.8354 4.32872 30.7478 4.11723 30.5918 3.9613C30.4359 3.80537 30.2244 3.71777 30.0039 3.71777C29.7834 3.71777 29.5719 3.80537 29.416 3.9613C29.26 4.11723 29.1724 4.32872 29.1724 4.54924V6.23592H27.4858C27.2653 6.23604 27.0539 6.32368 26.898 6.47959C26.7421 6.63549 26.6544 6.8469 26.6543 7.06738C26.6544 7.28786 26.7421 7.49927 26.898 7.65517C27.0539 7.81108 27.2653 7.89872 27.4858 7.89884H29.1724V9.58552C29.1724 9.80604 29.26 10.0175 29.416 10.1735C29.5719 10.3294 29.7834 10.417 30.0039 10.417C30.2244 10.417 30.4359 10.3294 30.5918 10.1735C30.7478 10.0175 30.8354 9.80604 30.8354 9.58552V7.89884H32.522C32.7425 7.89872 32.9539 7.81108 33.1098 7.65517C33.2657 7.49927 33.3534 7.28786 33.3535 7.06738C33.3534 6.8469 33.2657 6.63549 33.1098 6.47959C32.9539 6.32368 32.7425 6.23604 32.522 6.23592Z" fill="black"/>
</svg>
