<svg width="215" height="121" viewBox="0 0 215 121" fill="none" xmlns="http://www.w3.org/2000/svg">
<path fill-rule="evenodd" clip-rule="evenodd" d="M6.60873 74.0428L193.799 6.50839L208.392 46.9565L21.2016 114.491L6.60873 74.0428ZM0.208618 71.0364L4.91189 69.3395L192.102 1.80513L196.805 0.108281L198.502 4.81155L213.095 45.2596L214.792 49.9629L210.088 51.6598L22.8984 119.194L18.1952 120.891L16.4983 116.188L1.90546 75.7396L0.208618 71.0364ZM60.9194 87.7916C66.2021 85.8857 68.7259 80.4698 66.9524 75.5539C65.1612 70.5892 59.8274 68.0634 54.5447 69.9693C49.262 71.8752 46.7382 77.2911 48.5118 82.2069C50.303 87.1717 55.6367 89.6975 60.9194 87.7916ZM59.4242 83.494C56.8317 84.4293 54.2699 82.9212 53.3787 80.451C52.4699 77.932 53.4475 75.2022 56.04 74.2669C58.6569 73.3228 61.2187 74.8308 62.1099 77.301C63.0187 79.8201 62.0411 82.5498 59.4242 83.494ZM39.0288 95.634C43.1865 94.134 45.2001 91.0581 43.9383 87.5607C42.7648 84.308 39.8603 83.9185 35.6139 84.4832C33.0474 84.801 32.3369 84.6704 32.0546 83.8877C31.8163 83.2274 32.2024 82.5353 33.3519 82.1206C34.8682 81.5735 36.792 81.5429 38.7543 82.0787L39.9178 77.8722C37.5208 77.0509 34.9639 77.0889 32.0535 78.1389C27.9448 79.6213 26.2551 82.8291 27.4022 86.0085C28.6904 89.5792 31.8736 89.5917 35.8177 89.1085C38.3352 88.8083 39.0389 88.9967 39.2948 89.7059C39.5771 90.4886 39.0512 91.1758 37.7794 91.6347C35.7984 92.3494 33.6593 92.3195 31.4865 91.5832L29.9834 95.6911C32.7661 96.8155 35.9961 96.7281 39.0288 95.634ZM89.5831 77.0633L76.5475 81.7663L70.371 64.6464L75.1157 62.9346L79.7922 75.8969L88.0831 72.9057L89.5831 77.0633ZM95.6536 74.8732L102.159 72.5262C108.322 70.3026 110.594 65.337 108.812 60.3967C107.012 55.4075 102.195 53.1651 96.0804 55.371L89.4771 57.7533L95.6536 74.8732ZM98.8806 68.9549L95.7217 60.1993L97.6538 59.5022C100.491 58.4787 102.965 59.4379 103.953 62.177C104.968 64.9896 103.65 67.2343 100.813 68.2578L98.8806 68.9549ZM143.974 47.7662C145.747 52.682 143.223 58.0979 137.941 60.0038C132.658 61.9097 127.324 59.3839 125.533 54.4192C123.76 49.5033 126.283 44.0874 131.566 42.1815C136.849 40.2756 142.183 42.8014 143.974 47.7662ZM130.4 52.6633C131.291 55.1334 133.853 56.6415 136.446 55.7062C139.062 54.7621 140.04 52.0323 139.131 49.5132C138.24 47.0431 135.678 45.535 133.061 46.4791C130.469 47.4144 129.491 50.1442 130.4 52.6633ZM161.388 51.5171C166.254 49.7612 168.536 46.2017 166.542 40.6744L163.118 31.1851L158.3 32.9233L161.777 42.5594C162.641 44.9562 161.8 46.5312 159.892 47.2194C157.985 47.9077 156.314 47.1838 155.423 44.7136L151.99 35.1998L147.172 36.9381L150.64 46.5497C152.572 51.9058 156.521 53.273 161.388 51.5171ZM185.065 42.6154L180.32 44.3272L175.644 31.365L170.508 33.218L169.008 29.0603L184.024 23.6426L185.524 27.8003L180.388 29.6532L185.065 42.6154Z" fill="#F1000A"/>
</svg>
