<svg width="22" height="12" viewBox="0 0 22 12" fill="none" xmlns="http://www.w3.org/2000/svg">
<path d="M18.3493 6.80771C18.0098 6.42271 18.1069 6.25143 18.3493 5.90729C18.3537 5.90336 21.1564 2.42579 21.4452 1.24643L21.4469 1.24564C21.5904 0.815857 21.4469 0.5 20.753 0.5H18.457C17.8724 0.5 17.6029 0.771071 17.4585 1.07436C17.4585 1.07436 16.2895 3.58707 14.6357 5.21586C14.1019 5.6865 13.8552 5.83736 13.5638 5.83736C13.4203 5.83736 13.1971 5.6865 13.1971 5.25671V1.24564C13.1971 0.730214 13.0335 0.5 12.5496 0.5H8.93925C8.57261 0.5 8.35473 0.740429 8.35473 0.964357C8.35473 1.45307 9.18163 1.56543 9.26739 2.94043V5.92379C9.26739 6.5775 9.13526 6.69771 8.84212 6.69771C8.06159 6.69771 6.16715 4.17479 5.04449 1.28729C4.81786 0.727071 4.59647 0.500786 4.00758 0.500786H1.71062C1.05523 0.500786 0.923096 0.771857 0.923096 1.07514C0.923096 1.611 1.70362 4.27536 4.55272 7.79536C6.45154 10.1981 9.12563 11.5 11.5582 11.5C13.0204 11.5 13.1989 11.2109 13.1989 10.7135C13.1989 8.41764 13.0668 8.20079 13.7992 8.20079C14.1387 8.20079 14.7232 8.35164 16.0882 9.51057C17.6484 10.8848 17.9048 11.5 18.7781 11.5H21.0742C21.7287 11.5 22.0603 11.2109 21.8696 10.6404C21.4329 9.44064 18.4823 6.97271 18.3493 6.80771Z" fill="#969696"/>
</svg>
