<svg width="20" height="22" viewBox="0 0 20 22" fill="none" xmlns="http://www.w3.org/2000/svg">
<path d="M4.17783 13.6661V6.68848H18.7863L16.8266 13.6661H4.17783Z" stroke="#343434" stroke-width="2" stroke-miterlimit="10" stroke-linecap="round" stroke-linejoin="round"/>
<path d="M15.9344 21.0006C17.0823 21.0006 18.0128 20.0701 18.0128 18.9222C18.0128 17.7743 17.0823 16.8438 15.9344 16.8438C14.7865 16.8438 13.856 17.7743 13.856 18.9222C13.856 20.0701 14.7865 21.0006 15.9344 21.0006Z" stroke="#343434" stroke-width="2" stroke-miterlimit="10" stroke-linecap="round" stroke-linejoin="round"/>
<path d="M6.07651 21.0006C7.2244 21.0006 8.15495 20.0701 8.15495 18.9222C8.15495 17.7743 7.2244 16.8438 6.07651 16.8438C4.92862 16.8438 3.99808 17.7743 3.99808 18.9222C3.99808 20.0701 4.92862 21.0006 6.07651 21.0006Z" stroke="#343434" stroke-width="2" stroke-miterlimit="10" stroke-linecap="round" stroke-linejoin="round"/>
<path d="M4.20673 12.0332V4.58048L4.59272 1.9082H1" stroke="#343434" stroke-width="2" stroke-miterlimit="10" stroke-linecap="round" stroke-linejoin="round"/>
</svg>
