<svg width="14" height="17" viewBox="0 0 14 17" fill="none" xmlns="http://www.w3.org/2000/svg">
<path d="M5.24159 5.92236C5.3844 5.92236 5.52136 5.97909 5.62234 6.08008C5.72332 6.18106 5.78005 6.31802 5.78005 6.46082V12.9224C5.78005 13.0652 5.72332 13.2021 5.62234 13.3031C5.52136 13.4041 5.3844 13.4608 5.24159 13.4608C5.09878 13.4608 4.96182 13.4041 4.86084 13.3031C4.75986 13.2021 4.70312 13.0652 4.70312 12.9224V6.46082C4.70312 6.31802 4.75986 6.18106 4.86084 6.08008C4.96182 5.97909 5.09878 5.92236 5.24159 5.92236ZM9.298 6.46082C9.298 6.31802 9.24127 6.18106 9.14029 6.08008C9.0393 5.97909 8.90234 5.92236 8.75954 5.92236C8.61673 5.92236 8.47977 5.97909 8.37879 6.08008C8.2778 6.18106 8.22107 6.31802 8.22107 6.46082V12.9224C8.22107 13.0652 8.2778 13.2021 8.37879 13.3031C8.47977 13.4041 8.61673 13.4608 8.75954 13.4608C8.90234 13.4608 9.0393 13.4041 9.14029 13.3031C9.24127 13.2021 9.298 13.0652 9.298 12.9224V6.46082Z" fill="#747474"/>
<path fill-rule="evenodd" clip-rule="evenodd" d="M14 3.23077C14 3.51639 13.8865 3.79031 13.6846 3.99227C13.4826 4.19423 13.2087 4.30769 12.9231 4.30769H12.3846V14C12.3846 14.5712 12.1577 15.1191 11.7538 15.523C11.3498 15.9269 10.802 16.1538 10.2308 16.1538H3.76923C3.198 16.1538 2.65016 15.9269 2.24623 15.523C1.84231 15.1191 1.61538 14.5712 1.61538 14V4.30769H1.07692C0.791305 4.30769 0.517386 4.19423 0.315423 3.99227C0.113461 3.79031 0 3.51639 0 3.23077V2.15385C0 1.86823 0.113461 1.59431 0.315423 1.39235C0.517386 1.19038 0.791305 1.07692 1.07692 1.07692H4.84615C4.84615 0.791305 4.95962 0.517386 5.16158 0.315423C5.36354 0.113461 5.63746 0 5.92308 0L8.07692 0C8.36254 0 8.63646 0.113461 8.83842 0.315423C9.04039 0.517386 9.15385 0.791305 9.15385 1.07692H12.9231C13.2087 1.07692 13.4826 1.19038 13.6846 1.39235C13.8865 1.59431 14 1.86823 14 2.15385V3.23077ZM2.81938 4.30769L2.69231 4.37123V14C2.69231 14.2856 2.80577 14.5595 3.00773 14.7615C3.20969 14.9635 3.48361 15.0769 3.76923 15.0769H10.2308C10.5164 15.0769 10.7903 14.9635 10.9923 14.7615C11.1942 14.5595 11.3077 14.2856 11.3077 14V4.37123L11.1806 4.30769H2.81938ZM1.07692 3.23077V2.15385H12.9231V3.23077H1.07692Z" fill="#747474"/>
</svg>
