<svg xmlns="http://www.w3.org/2000/svg" xmlns:xlink="http://www.w3.org/1999/xlink">

	<!-- Home -->
	<symbol id="icon-home" viewBox="0 0 23 21">
		<path d="M19.3509 10.3516C18.8291 10.3516 18.3877 10.7946 18.3877 11.3182V18.1652H13.8524V12.3251C13.8524 11.8015 13.4109 11.3585 12.8891 11.3585H9.91914C9.39739 11.3585 8.9559 11.8015 8.9559 12.3251V18.1652H4.42064V11.3182C4.42064 10.7946 3.97914 10.3516 3.45738 10.3516C2.93562 10.3516 2.49414 10.7946 2.49414 11.3182V19.1318C2.49414 19.6554 2.93562 20.0984 3.45738 20.0984H9.91914C10.4409 20.0984 10.8824 19.6554 10.8824 19.1318V13.2515H11.9259V19.0915C11.9259 19.6151 12.3674 20.0582 12.8891 20.0582H19.3509C19.8727 20.0582 20.3141 19.6151 20.3141 19.0915V11.2779C20.3141 10.7543 19.8727 10.3516 19.3509 10.3516Z"/>
		<path d="M22.4835 9.22328L12.0884 0.241658C11.7272 -0.0805526 11.2055 -0.0805526 10.8443 0.241658L0.328856 9.22328C0.12818 9.38438 0.00777925 9.62604 0.00777925 9.8677C-0.0323559 10.1094 0.0880398 10.3913 0.24858 10.5524C0.449256 10.7538 0.690074 10.8746 0.97102 10.8746C1.21183 10.8746 1.41251 10.7941 1.61319 10.6329L11.4864 2.17492L21.2794 10.6329C21.6808 10.9954 22.2828 10.9149 22.644 10.5121C22.8045 10.3107 22.8848 10.0691 22.8848 9.82742C22.7644 9.62604 22.6841 9.42466 22.4835 9.22328Z"/>
	</symbol>

	<!-- Catalog -->
	<symbol id="icon-catalog" viewBox="0 0 23 23">
		<path d="M14.7678 16.9579C13.8849 16.9579 12.9618 16.7968 12.0788 16.5148C10.072 15.7899 8.42648 14.2996 7.50337 12.3664C6.54013 10.3928 6.41972 8.17764 7.14216 6.12355C7.82445 4.06946 9.30945 2.45841 11.2359 1.49178C13.2026 0.565422 15.3699 0.404317 17.4168 1.12929C19.4636 1.85426 21.1092 3.30421 22.0323 5.27775C22.9554 7.25129 23.1159 9.42621 22.3935 11.4803C21.6711 13.5344 20.2262 15.1857 18.2596 16.1121C17.1759 16.6759 15.9719 16.9579 14.7678 16.9579ZM14.7678 2.90145C13.925 2.90145 13.042 3.10283 12.1992 3.50559C10.7945 4.19029 9.7108 5.39858 9.18905 6.8888C8.66729 8.37903 8.74756 9.99008 9.42986 11.3997C10.8346 14.3399 14.3665 15.5482 17.2963 14.1385C18.7011 13.4538 19.7847 12.2456 20.3065 10.7553C20.8282 9.26511 20.748 7.65405 20.0657 6.24438C19.0623 4.15001 16.9753 2.90145 14.7678 2.90145Z"/>
		<path d="M19.6673 21.5064L17.2994 16.5927C17.0184 16.0289 17.2592 15.3844 17.8211 15.1025C18.383 14.8206 19.0252 15.0622 19.3061 15.6261L21.6741 20.5398C21.955 21.1037 21.7142 21.7481 21.1523 22.03C20.5904 22.2717 19.9081 22.0703 19.6673 21.5064Z"/>
		<path d="M3.33122 10.15H1.12378C0.481622 10.15 0 9.62641 0 9.02227C0 8.41812 0.481622 7.89453 1.12378 7.89453H3.33122C3.93324 7.89453 4.455 8.37785 4.455 9.02227C4.41487 9.62641 3.93324 10.15 3.33122 10.15Z"/>
		<path d="M5.09716 15.4703H1.12378C0.521757 15.4703 0 14.987 0 14.3426C0 13.7384 0.481622 13.2148 1.12378 13.2148H5.09716C5.69919 13.2148 6.22095 13.6982 6.22095 14.3426C6.18081 14.9467 5.69919 15.4703 5.09716 15.4703Z"/>
		<path d="M9.51203 20.3414H1.12378C0.521757 20.3414 0 19.8581 0 19.2137C0 18.6095 0.481622 18.0859 1.12378 18.0859H9.51203C10.1141 18.0859 10.6358 18.5693 10.6358 19.2137C10.5957 19.8581 10.1141 20.3414 9.51203 20.3414Z"/>
	</symbol>

	<!-- User profile -->
	<symbol id="icon-profile" viewBox="0 0 19 23">
		<path d="M9.23002 13.4014C12.7053 13.4014 15.5167 10.59 15.5167 7.11479C15.5167 3.63955 12.7053 0.828125 9.23002 0.828125C5.79383 0.828125 2.94336 3.63955 2.94336 7.11479C2.94336 10.59 5.79383 13.4014 9.23002 13.4014ZM9.23002 2.66336C11.69 2.66336 13.6814 4.65479 13.6814 7.11479C13.6814 9.57478 11.69 11.5662 9.23002 11.5662C6.77002 11.5662 4.81764 9.57478 4.81764 7.11479C4.81764 4.65479 6.80907 2.66336 9.23002 2.66336Z"/>
		<path d="M18.4458 21.2125C17.8601 19.7286 15.4782 14.9648 9.19156 14.9648C3.99823 14.9648 1.2649 18.8696 0.0934751 21.1734C-0.0236676 21.4077 -0.0236676 21.681 0.0544275 21.9153C0.17157 22.1496 0.366808 22.3448 0.601094 22.462C0.679189 22.501 0.796332 22.501 0.913475 22.501C1.2649 22.501 1.57728 22.3058 1.73347 21.9934C2.51443 20.4315 4.81823 16.8001 9.19156 16.8001C14.1506 16.8001 16.103 20.3534 16.7277 21.8763C16.8839 22.3058 17.3525 22.5401 17.782 22.4229C18.0554 22.3448 18.2897 22.1886 18.4068 21.9544C18.5239 21.7201 18.5239 21.4467 18.4458 21.2125Z"/>
	</symbol>

	<!-- Cart -->
	<symbol id="icon-cart" viewBox="0 0 24 20">
		<path d="M22.8113 6.36183C22.6085 6.16302 22.3651 6.00398 22.0812 6.00398H17.7408C17.4974 6.00398 17.3351 5.80517 17.3351 5.60636V3.97614C17.3351 2.86282 16.5238 0 12.8325 0H10.4392C9.46564 0 8.53265 0.238569 7.76193 0.675944C6.46387 1.39165 5.73371 2.58449 5.73371 3.97614V5.64612C5.73371 5.84493 5.57146 6.04374 5.32807 6.04374H0.987681C0.70373 6.04374 0.419779 6.16302 0.216957 6.40159C0.0141354 6.64016 -0.0264289 6.91849 0.0141354 7.19682L1.67727 15.2684C1.83953 16.1431 2.16405 16.8986 2.56969 17.5746C3.54324 19.165 5.00355 20 6.70726 20H16.321C16.3616 20 16.4021 20 16.4427 20C17.8625 20 20.4991 19.1252 21.2293 15.7853C22.3245 10.8946 23.0141 7.15706 23.0141 7.15706C23.0547 6.87873 22.9736 6.6004 22.8113 6.36183ZM12.7919 6.99801C12.7919 6.48111 12.3457 6.04374 11.8184 6.04374H8.00532C7.8025 6.04374 7.6808 5.88469 7.6808 5.72565V3.97614C7.6808 3.69781 7.6808 2.90258 8.73548 2.34592C9.22225 2.06759 9.83071 1.94831 10.4392 1.94831H12.8325C15.2258 1.94831 15.3475 3.65805 15.388 4.0159V7.03777C15.388 7.55467 15.8342 7.99205 16.3616 7.99205H20.5397C20.6208 7.99205 20.702 8.03181 20.7831 8.11133C20.8237 8.19086 20.8642 8.27038 20.8642 8.3499C20.5397 9.94036 20.0529 12.4851 19.4039 15.4672C18.836 18.0119 16.8889 18.171 16.4427 18.171H6.74782C5.73371 18.171 4.92243 17.6541 4.2734 16.66C3.98944 16.1829 3.78662 15.6262 3.62436 14.9901L2.24518 8.31014C2.24518 8.23062 2.24518 8.11133 2.3263 8.03181C2.40743 7.95229 2.48856 7.95229 2.56969 7.95229H11.8184C12.3457 7.95229 12.7919 7.51491 12.7919 6.99801Z"/>
	</symbol>

	<!-- Compare products -->
	<symbol id="icon-compare" viewBox="0 0 24 24">
		<path d="M15.436,0 C19.063,0 21.5,2.546 21.5,6.335 L21.5,15.165 C21.5,18.954 19.063,21.5 15.436,21.5 L6.064,21.5 C2.437,21.5 0,18.954 0,15.165 L0,6.335 C0,2.546 2.437,0 6.064,0 L15.436,0 Z M15.436,1.5 L6.064,1.5 C3.292,1.5 1.5,3.397 1.5,6.335 L1.5,15.165 C1.5,18.103 3.292,20 6.064,20 L15.436,20 C18.209,20 20,18.103 20,15.165 L20,6.335 C20,3.397 18.209,1.5 15.436,1.5 Z M6.1211,8.2025 C6.5351,8.2025 6.8711,8.5385 6.8711,8.9525 L6.8711,15.8125 C6.8711,16.2265 6.5351,16.5625 6.1211,16.5625 C5.7071,16.5625 5.3711,16.2265 5.3711,15.8125 L5.3711,8.9525 C5.3711,8.5385 5.7071,8.2025 6.1211,8.2025 Z M10.7881,4.9185 C11.2021,4.9185 11.5381,5.2545 11.5381,5.6685 L11.5381,15.8115 C11.5381,16.2255 11.2021,16.5615 10.7881,16.5615 C10.3741,16.5615 10.0381,16.2255 10.0381,15.8115 L10.0381,5.6685 C10.0381,5.2545 10.3741,4.9185 10.7881,4.9185 Z M15.3784,11.8275 C15.7924,11.8275 16.1284,12.1635 16.1284,12.5775 L16.1284,15.8115 C16.1284,16.2255 15.7924,16.5615 15.3784,16.5615 C14.9644,16.5615 14.6284,16.2255 14.6284,15.8115 L14.6284,12.5775 C14.6284,12.1635 14.9644,11.8275 15.3784,11.8275 Z" transform="translate(1 1)"/>
	</symbol>

	<!-- Favorite products -->
	<symbol id="icon-favorite" viewBox="0 0 23 20">
		<path d="M11.4826 19.7106C11.282 19.7106 11.0813 19.6703 10.8806 19.5495C10.6799 19.4287 10.5194 19.3078 10.3187 19.2273C9.91737 18.9856 9.51602 18.744 9.11467 18.5023C8.19156 17.8982 7.26845 17.2537 6.38548 16.5288C5.98413 16.2066 5.62291 15.8843 5.30183 15.6024C4.25832 14.6761 3.37534 13.7497 2.65291 12.7831C1.89034 11.8164 1.32845 10.8498 0.927099 9.8429C0.525747 8.87627 0.325073 7.99019 0.244802 7.06384C0.124397 4.64726 1.0475 2.67372 2.97399 1.30433C4.17805 0.418247 5.58278 0.0557604 7.06778 0.216866C8.91399 0.377971 10.4391 1.1835 11.5228 2.63344C12.486 1.38488 13.8105 0.579352 15.3758 0.297418C17.9043 -0.185897 20.4328 0.941839 21.8375 3.11676C22.4797 4.16394 22.8409 5.29168 22.8409 6.45969C22.8409 7.54715 22.6402 8.47351 22.279 9.48041C21.8776 10.5679 21.2756 11.6151 20.4328 12.7025L20.3124 12.8636C20.2321 12.9845 20.1117 13.1053 20.0314 13.2261C19.9512 13.3067 19.911 13.3872 19.8308 13.4678L19.7104 13.6289C19.6702 13.6692 19.6301 13.7094 19.5899 13.7497L19.4695 13.8705C19.3491 14.0316 19.1886 14.1927 19.0682 14.3136C18.9478 14.4344 18.7872 14.5955 18.6668 14.7163L18.4662 14.9177C17.4628 15.8843 16.339 16.8107 15.0145 17.7371C14.9343 17.7773 14.8941 17.8176 14.8139 17.8982C14.7336 17.9384 14.6935 17.9787 14.6132 18.0593C14.5731 18.0995 14.4928 18.1398 14.4125 18.1801C14.3724 18.2204 14.2921 18.2607 14.252 18.3009C14.0914 18.3815 13.971 18.5023 13.8105 18.5829C13.4894 18.7842 13.2085 18.9453 12.8874 19.1467C12.6466 19.3078 12.3656 19.4689 12.1248 19.5898C11.9643 19.5898 11.7235 19.7106 11.4826 19.7106ZM6.42561 2.10985C5.54264 2.10985 4.73994 2.35151 4.05764 2.8751C2.65291 3.88201 2.05088 5.21113 2.13115 6.94301C2.17129 7.62771 2.33183 8.3124 2.65291 9.07765C3.01413 9.92345 3.49575 10.729 4.13791 11.5748C4.82021 12.4609 5.58278 13.2664 6.54602 14.1122C6.8671 14.3941 7.18818 14.6761 7.58953 14.9983C8.43237 15.683 9.27521 16.2871 10.1582 16.851C10.5595 17.0926 10.9208 17.3343 11.3221 17.5357C11.4024 17.576 11.4425 17.6162 11.5228 17.6565C11.6432 17.576 11.7636 17.4954 11.9241 17.4148C12.2452 17.2537 12.5262 17.0524 12.8472 16.8913C12.9676 16.8107 13.0479 16.7302 13.1683 16.6899C13.2486 16.6496 13.3289 16.6093 13.369 16.5288C13.4091 16.4885 13.4493 16.4885 13.5295 16.4482C13.5697 16.4079 13.6098 16.4079 13.6499 16.3677C13.7302 16.2871 13.8105 16.2468 13.8908 16.1663C15.1349 15.2802 16.1785 14.4344 17.1016 13.5483C17.1818 13.4678 17.2621 13.3872 17.3424 13.3469C17.4628 13.2261 17.5832 13.1053 17.7036 13.0247C17.824 12.9039 17.9444 12.7831 18.0648 12.6622L18.1852 12.5011C18.1852 12.4609 18.2254 12.4609 18.2254 12.4206C18.2655 12.3803 18.3056 12.34 18.3458 12.2998C18.3859 12.2595 18.426 12.2192 18.4662 12.1789C18.5063 12.1387 18.5464 12.0984 18.5866 12.0581C18.6668 11.9373 18.7471 11.8567 18.8274 11.7359L18.9478 11.5748C19.6702 10.6484 20.192 9.76235 20.5131 8.83599C20.794 8.07074 20.9545 7.30549 20.9545 6.45969C20.9545 5.65417 20.7137 4.84864 20.2722 4.16394C19.309 2.63344 17.5431 1.86819 15.8172 2.1904C14.5329 2.43206 13.5697 3.07648 12.8472 4.20422C12.8472 4.2445 12.8071 4.28477 12.8071 4.28477C12.767 4.36532 12.7268 4.4056 12.6867 4.48615C12.3255 5.00975 11.6432 5.21113 11.0813 4.92919C10.7201 4.76809 10.5595 4.48615 10.4793 4.36533C9.67656 2.99593 8.51264 2.27096 6.98751 2.10985C6.70656 2.10985 6.54602 2.10985 6.42561 2.10985Z"/>
	</symbol>

	<!-- Phone -->
	<symbol id="icon-phone" viewBox="0 0 24 24">
		<path d="M4.6575,0.0004 C5.7745,0.0154 6.5705,0.8524 7.5775,1.9114 C7.8265,2.1724 8.0955,2.4574 8.3965,2.7574 C9.8555,4.2174 9.4405,5.4084 9.1055,6.3644 C8.7415,7.4074 8.4265,8.3074 10.3125,10.1934 C12.1985,12.0794 13.0975,11.7644 14.1395,11.3974 C15.0965,11.0634 16.2845,10.6454 17.7465,12.1054 C18.0435,12.4024 18.3235,12.6684 18.5835,12.9154 C19.6465,13.9274 20.4865,14.7264 20.5006533,15.8464 C20.5115,16.8004 19.9315,17.7744 18.4995,19.2064 L17.8655,18.7764 L18.4025,19.2994 C18.0855,19.6244 17.2425,20.4904 15.5915,20.5004 L15.5615,20.5004 C13.0695,20.5004 9.8205,18.5164 5.9045,14.6014 C1.9725,10.6704 -0.0145,7.4114 0.000415706294,4.9144 C0.0095,3.2644 0.8745,2.4194 1.1995,2.1024 L1.22724074,2.0721037 L1.22724074,2.0721037 L1.2945,2.0044 L1.2945,2.0044 C2.7295,0.5694 3.7155,-0.0206 4.6575,0.0004 Z M4.6385,1.5004 L4.6305,1.5004 C4.1814375,1.5004 3.49946484,1.9504 2.54832715,2.87429526 L2.35733235,3.06185986 L2.3595,3.0614 C2.3607,3.0614 2.34318,3.08012 2.315364,3.108488 L2.2485,3.1754 L2.2485,3.1754 C2.0065,3.4104 1.5055,3.8994 1.50044962,4.9224 C1.4925,6.3534 2.4335,9.0104 6.9645,13.5404 C11.4735,18.0484 14.1265,19.0004 15.5615,19.0004 L15.5825,19.0004 C16.6055,18.9944 17.0935,18.4934 17.3285,18.2524 C17.3995,18.1794 17.4575,18.1244 17.4985,18.0914 C18.4955,17.0884 19.0055,16.3434 19.0005364,15.8644 C18.9945,15.3764 18.3875,14.8004 17.5485,14.0014 C17.2815,13.7484 16.9915,13.4714 16.6855,13.1654 C15.8915,12.3744 15.5005,12.5094 14.6355,12.8134 C13.4405,13.2324 11.8035,13.8064 9.2525,11.2534 C6.7005,8.7024 7.2725,7.0654 7.6895,5.8694 C7.9915,5.0054 8.1295,4.6124 7.3365,3.8184 C7.0265,3.5084 6.7475,3.2144 6.4905,2.9444 C5.6965,2.1104 5.1235,1.5074 4.6385,1.5004 Z M13.2466,3.5579 C15.3276,3.9619 16.9346,5.5679 17.3396,7.6499 C17.4186,8.0579 17.1536,8.4509 16.7476,8.5299 C16.6986,8.5389 16.6506,8.5439 16.6026,8.5439 C16.2506,8.5439 15.9376,8.2959 15.8676,7.9379 C15.5796,6.4579 14.4386,5.3169 12.9606,5.0299 C12.5536,4.9509 12.2886,4.5579 12.3676,4.1509 C12.4466,3.7439 12.8466,3.4779 13.2466,3.5579 Z M13.1867,0.0061 C17.2647,0.4591 20.4317,3.6221 20.8887,7.6991 C20.9347,8.1111 20.6387,8.4821 20.2277,8.5281 C20.1997,8.5311 20.1707,8.5331 20.1427,8.5331 C19.7657,8.5331 19.4417,8.2501 19.3987,7.8671 C19.0197,4.4911 16.3977,1.8711 13.0207,1.4961 C12.6097,1.4501 12.3127,1.0801 12.3587,0.6681 C12.4037,0.2571 12.7707,-0.0459 13.1867,0.0061 Z" transform="translate(2 2)"/>
	</symbol>

	<!-- Search -->
	<symbol id="icon-search" viewBox="0 0 17 23">
		<path d="M8.76783 16.9579C7.88486 16.9579 6.96175 16.7968 6.07878 16.5148C4.07202 15.7899 2.42648 14.2996 1.50337 12.3664C0.540128 10.3928 0.419722 8.17764 1.14216 6.12355C1.82445 4.06946 3.30945 2.45841 5.23594 1.49178C7.20256 0.565422 9.36986 0.404317 11.4168 1.12929C13.4636 1.85426 15.1092 3.30421 16.0323 5.27775C16.9554 7.25129 17.1159 9.42621 16.3935 11.4803C15.6711 13.5344 14.2262 15.1857 12.2596 16.1121C11.1759 16.6759 9.97189 16.9579 8.76783 16.9579ZM8.76783 2.90145C7.925 2.90145 7.04202 3.10283 6.19918 3.50559C4.79445 4.19029 3.7108 5.39858 3.18905 6.8888C2.66729 8.37903 2.74756 9.99008 3.42986 11.3997C4.83459 14.3399 8.36648 15.5482 11.2963 14.1385C12.7011 13.4538 13.7847 12.2456 14.3065 10.7553C14.8282 9.26511 14.748 7.65405 14.0657 6.24438C13.0623 4.15001 10.9753 2.90145 8.76783 2.90145Z"/>
		<path d="M13.6673 21.5064L11.2994 16.5927C11.0184 16.0289 11.2592 15.3844 11.8211 15.1025C12.383 14.8206 13.0252 15.0622 13.3061 15.6261L15.6741 20.5398C15.955 21.1037 15.7142 21.7481 15.1523 22.03C14.5904 22.2717 13.9081 22.0703 13.6673 21.5064Z"/>
	</symbol>

	<!-- Close -->
	<symbol id="icon-close" viewBox="0 0 384.97 384.97">
		<path d="M192.485,0C86.173,0,0,86.173,0,192.485c0,106.3,86.173,192.485,192.485,192.485c106.3,0,192.485-86.173,192.485-192.485 S298.785,0,192.485,0z M192.485,360.909c-93.018,0-168.424-75.406-168.424-168.424S99.467,24.061,192.485,24.061 s168.424,75.406,168.424,168.424S285.503,360.909,192.485,360.909z"/><path d="M273.437,255.897l-63.376-63.388l63.015-62.497c4.752-4.704,4.752-12.319,0-17.011c-4.74-4.692-12.439-4.692-17.179,0 l-62.931,62.413l-63.869-63.881c-4.74-4.764-12.439-4.764-17.179,0c-4.74,4.752-4.74,12.475,0,17.227l63.773,63.785 l-64.134,63.604c-4.74,4.704-4.74,12.319,0,17.011c4.74,4.704,12.439,4.704,17.191,0l64.049-63.52l63.472,63.472 c4.74,4.764,12.439,4.764,17.179,0C278.177,268.372,278.177,260.661,273.437,255.897z"/>
	</symbol>

	<!-- Danger filled -->
	<symbol id="icon-danger-filled" viewBox="0 0 512 512">
		<path d="M256,0C115.2,0,0,115.2,0,256s115.2,256,256,256s256-115.2,256-256S396.8,0,256,0z M256,51.2 c28.16,0,48.64,23.04,46.08,51.2L281.6,307.2h-51.2l-20.48-204.8C207.36,74.24,227.84,51.2,256,51.2z M256,460.8 c-28.16,0-51.2-23.04-51.2-51.2c0-28.16,23.04-51.2,51.2-51.2s51.2,23.04,51.2,51.2C307.2,437.76,284.16,460.8,256,460.8z"/>
	</symbol>

	<!-- Danger outline -->
	<symbol id="icon-danger-outline" viewBox="0 0 29.535 29.535">
		<path d="M14.768,0C6.609,0,0,6.609,0,14.768c0,8.155,6.609,14.767,14.768,14.767s14.766-6.612,14.766-14.767 C29.534,6.609,22.927,0,14.768,0z M14.768,27.126c-6.826,0-12.359-5.532-12.359-12.359c0-6.828,5.533-12.362,12.359-12.362 S27.128,7.94,27.128,14.768C27.128,21.594,21.594,27.126,14.768,27.126z"/><path d="M16.338 17.962L16.938 5.601 12.625 5.601 13.227 17.962z"/><path d="M14.781,19.323c-1.445,0-2.455,1.011-2.455,2.485c0,1.418,0.982,2.482,2.398,2.482h0.057 c1.473,0,2.428-1.064,2.428-2.482C17.182,20.334,16.227,19.323,14.781,19.323z"/>
	</symbol>

	<!-- Info filled -->
	<symbol id="icon-info-filled" viewBox="0 0 460 460">
		<path d="M230,0C102.975,0,0,102.975,0,230s102.975,230,230,230s230-102.974,230-230S357.025,0,230,0z M268.333,377.36 c0,8.676-7.034,15.71-15.71,15.71h-43.101c-8.676,0-15.71-7.034-15.71-15.71V202.477c0-8.676,7.033-15.71,15.71-15.71h43.101 c8.676,0,15.71,7.033,15.71,15.71V377.36z M230,157c-21.539,0-39-17.461-39-39s17.461-39,39-39s39,17.461,39,39 S251.539,157,230,157z"/>
	</symbol>

	<!-- Info outline -->
	<symbol id="icon-info-outline" viewBox="0 0 501.333 501.333">
		<path d="M250.667,0C112,0,0,112,0,250.667s112,250.667,250.667,250.667s250.667-112,250.667-250.667S389.333,0,250.667,0z M250.667,459.733c-115.2,0-209.067-93.867-209.067-209.067S135.467,41.6,250.667,41.6s209.067,93.867,209.067,209.067 S365.867,459.733,250.667,459.733z"/><path d="M251.733,192C240,192,230.4,201.6,230.4,213.333v172.8c0,11.733,9.6,21.333,21.333,21.333 c11.733,0,21.333-9.6,21.333-20.267V213.334C273.067,201.6,263.467,192,251.733,192z"/><path d="M249.6,92.8c-11.733,0-21.333,9.6-21.333,21.333V134.4c0,11.733,9.6,21.333,21.333,21.333 c11.733,0,20.267-9.6,21.333-21.333v-20.267C270.933,102.4,261.333,92.8,249.6,92.8z"/>
	</symbol>

	<!-- Success filled -->
	<symbol id="icon-success-filled" viewBox="0 0 477.867 477.867">
		<path d="M238.933,0C106.974,0,0,106.974,0,238.933s106.974,238.933,238.933,238.933s238.933-106.974,238.933-238.933 C477.726,107.033,370.834,0.141,238.933,0z M370.466,165.666L199.799,336.333c-6.665,6.663-17.468,6.663-24.132,0l-68.267-68.267 c-6.78-6.548-6.968-17.352-0.42-24.132c6.548-6.78,17.352-6.968,24.132-0.42c0.142,0.138,0.282,0.277,0.42,0.42l56.201,56.201 l158.601-158.601c6.78-6.548,17.584-6.36,24.132,0.419C376.854,148.567,376.854,159.052,370.466,165.666z"/>
	</symbol>

	<!-- Success outline -->
	<symbol id="icon-success-outline" viewBox="0 0 477.867 477.867">
		<path d="M238.933,0C106.974,0,0,106.974,0,238.933s106.974,238.933,238.933,238.933s238.933-106.974,238.933-238.933 C477.726,107.033,370.834,0.141,238.933,0z M238.933,443.733c-113.108,0-204.8-91.692-204.8-204.8s91.692-204.8,204.8-204.8 s204.8,91.692,204.8,204.8C443.611,351.991,351.991,443.611,238.933,443.733z"/><path d="M370.046,141.534c-6.614-6.388-17.099-6.388-23.712,0v0L187.733,300.134l-56.201-56.201 c-6.548-6.78-17.353-6.967-24.132-0.419c-6.78,6.548-6.967,17.353-0.419,24.132c0.137,0.142,0.277,0.282,0.419,0.419 l68.267,68.267c6.664,6.663,17.468,6.663,24.132,0l170.667-170.667C377.014,158.886,376.826,148.082,370.046,141.534z"/>
	</symbol>

	<!-- Upload -->
	<symbol id="icon-upload" viewBox="0 0 24 24">
		<path d="m21.5 20h-2c-.276 0-.5-.224-.5-.5s.224-.5.5-.5h2c.827 0 1.5-.673 1.5-1.5v-11c0-.827-.673-1.5-1.5-1.5h-11.5c-.133 0-.26-.053-.354-.146l-1.853-1.854h-5.293c-.827 0-1.5.673-1.5 1.5v13c0 .827.673 1.5 1.5 1.5h2c.276 0 .5.224.5.5s-.224.5-.5.5h-2c-1.379 0-2.5-1.122-2.5-2.5v-13c0-1.378 1.121-2.5 2.5-2.5h5.5c.133 0 .26.053.354.146l1.853 1.854h11.293c1.379 0 2.5 1.122 2.5 2.5v11c0 1.378-1.121 2.5-2.5 2.5z"/><path d="m12 19c-.276 0-.5-.224-.5-.5v-7.75c0-.276.224-.5.5-.5s.5.224.5.5v7.75c0 .276-.224.5-.5.5z"/><path d="m14.5 13.5c-.128 0-.256-.049-.354-.146l-2.146-2.147-2.146 2.146c-.195.195-.512.195-.707 0s-.195-.512 0-.707l2.5-2.5c.195-.195.512-.195.707 0l2.5 2.5c.195.195.195.512 0 .707-.098.098-.226.147-.354.147z"/><path d="m15.5 22h-7c-.827 0-1.5-.673-1.5-1.5v-2c0-.276.224-.5.5-.5s.5.224.5.5v2c0 .276.225.5.5.5h7c.275 0 .5-.224.5-.5v-2c0-.276.224-.5.5-.5s.5.224.5.5v2c0 .827-.673 1.5-1.5 1.5z"/>
	</symbol>

	<!-- Auth Facebook -->
	<symbol id="icon-auth-facebook" viewBox="0 0 512 512">
		<path fill="#1976D2" d="M384,176h-96v-64c0-17.664,14.336-32,32-32h32V0h-64l0,0c-53.024,0-96,42.976-96,96v80h-64v80h64v256 h96V256h64L384,176z"/>
	</symbol>

	<!-- Auth Google -->
	<symbol id="icon-auth-google" viewBox="0 0 512 512">
		<path fill="#FBBB00" d="M113.47,309.408L95.648,375.94l-65.139,1.378C11.042,341.211,0,299.9,0,256 c0-42.451,10.324-82.483,28.624-117.732h0.014l57.992,10.632l25.404,57.644c-5.317,15.501-8.215,32.141-8.215,49.456 C103.821,274.792,107.225,292.797,113.47,309.408z"/><path fill="#518EF8" d="M507.527,208.176C510.467,223.662,512,239.655,512,256c0,18.328-1.927,36.206-5.598,53.451 c-12.462,58.683-45.025,109.925-90.134,146.187l-0.014-0.014l-73.044-3.727l-10.338-64.535 c29.932-17.554,53.324-45.025,65.646-77.911h-136.89V208.176h138.887L507.527,208.176L507.527,208.176z"/><path fill="#28B446" d="M416.253,455.624l0.014,0.014C372.396,490.901,316.666,512,256,512 c-97.491,0-182.252-54.491-225.491-134.681l82.961-67.91c21.619,57.698,77.278,98.771,142.53,98.771 c28.047,0,54.323-7.582,76.87-20.818L416.253,455.624z"/><path fill="#F14336" d="M419.404,58.936l-82.933,67.896c-23.335-14.586-50.919-23.012-80.471-23.012 c-66.729,0-123.429,42.957-143.965,102.724l-83.397-68.276h-0.014C71.23,56.123,157.06,0,256,0 C318.115,0,375.068,22.126,419.404,58.936z"/>
	</symbol>

	<!-- Auth VK -->
	<symbol id="icon-auth-vk" viewBox="0 0 511.962 511.962">
		<path fill="#1E88E5" d="M250.503,400.807h30.592c0,0,9.248-1.024,13.952-6.112c4.352-4.672,4.192-13.44,4.192-13.44 s-0.608-41.056,18.464-47.104c18.784-5.952,42.912,39.68,68.48,57.248c19.328,13.28,34.016,10.368,34.016,10.368l68.384-0.96 c0,0,35.776-2.208,18.816-30.336c-1.376-2.304-9.888-20.8-50.848-58.816c-42.88-39.808-37.12-33.344,14.528-102.176 c31.456-41.92,44.032-67.52,40.096-78.464c-3.744-10.432-26.88-7.68-26.88-7.68l-76.928,0.448c0,0-5.696-0.768-9.952,1.76 c-4.128,2.496-6.784,8.256-6.784,8.256s-12.192,32.448-28.448,60.032c-34.272,58.208-48,61.28-53.6,57.664 c-13.024-8.416-9.76-33.856-9.76-51.904c0-56.416,8.544-79.936-16.672-86.016c-8.384-2.016-14.528-3.36-35.936-3.584 c-27.456-0.288-50.72,0.096-63.872,6.528c-8.768,4.288-15.52,13.856-11.392,14.4c5.088,0.672,16.608,3.104,22.72,11.424 c7.904,10.72,7.616,34.848,7.616,34.848s4.544,66.4-10.592,74.656c-10.4,5.664-24.64-5.888-55.2-58.72 c-15.648-27.04-27.488-56.96-27.488-56.96s-2.272-5.568-6.336-8.544c-4.928-3.616-11.84-4.768-11.84-4.768l-73.152,0.448 c0,0-10.976,0.32-15.008,5.088c-3.584,4.256-0.288,13.024-0.288,13.024s57.28,133.984,122.112,201.536 C182.983,404.871,250.503,400.807,250.503,400.807L250.503,400.807z"/>
	</symbol>

	<!-- Arrow search -->
	<symbol id="icon-arrow-search" viewBox="0 0 268.833 268.833">
		<path d="M256.333,121.916H42.679l58.659-58.661c4.882-4.882,4.882-12.796,0-17.678c-4.883-4.881-12.797-4.881-17.678,0l-79.998,80 c-4.883,4.882-4.883,12.796,0,17.678l80,80c2.439,2.439,5.64,3.661,8.839,3.661s6.397-1.222,8.839-3.661 c4.882-4.882,4.882-12.796,0-17.678l-58.661-58.661h213.654c6.903,0,12.5-5.598,12.5-12.5 C268.833,127.513,263.236,121.916,256.333,121.916z"/>
	</symbol>

	<!-- Arrow left -->
	<symbol id="icon-arrow-left" viewBox="0 0 24 24">
		<path d="M0.469669914,0.469669914 C0.735936477,0.203403352 1.15260016,0.1791973 1.44621165,0.397051761 L1.53033009,0.469669914 L8,6.939 L14.4696699,0.469669914 C14.7359365,0.203403352 15.1526002,0.1791973 15.4462117,0.397051761 L15.5303301,0.469669914 C15.7965966,0.735936477 15.8208027,1.15260016 15.6029482,1.44621165 L15.5303301,1.53033009 L8.53033009,8.53033009 C8.26406352,8.79659665 7.84739984,8.8208027 7.55378835,8.60294824 L7.46966991,8.53033009 L0.469669914,1.53033009 C0.176776695,1.23743687 0.176776695,0.762563133 0.469669914,0.469669914 Z" transform="rotate(90 6.25 10.25)"/>
	</symbol>

	<!-- Arrow right -->
	<symbol id="icon-arrow-right" viewBox="0 0 24 24">
		<path d="M0.469669914,0.469669914 C0.735936477,0.203403352 1.15260016,0.1791973 1.44621165,0.397051761 L1.53033009,0.469669914 L8,6.939 L14.4696699,0.469669914 C14.7359365,0.203403352 15.1526002,0.1791973 15.4462117,0.397051761 L15.5303301,0.469669914 C15.7965966,0.735936477 15.8208027,1.15260016 15.6029482,1.44621165 L15.5303301,1.53033009 L8.53033009,8.53033009 C8.26406352,8.79659665 7.84739984,8.8208027 7.55378835,8.60294824 L7.46966991,8.53033009 L0.469669914,1.53033009 C0.176776695,1.23743687 0.176776695,0.762563133 0.469669914,0.469669914 Z" transform="rotate(-90 13.75 6.25)"/>
	</symbol>

	<!-- YouTube -->
	<symbol id="icon-youtube" viewBox="0 0 24 17">
		<path d="M23.5057 2.66C23.2289 1.62 22.4184 0.8 21.3904 0.52C19.5123 0 11.9999 0 11.9999 0C11.9999 0 4.48763 0 2.60954 0.5C1.60131 0.78 0.771002 1.62 0.494232 2.66C0 4.56 0 8.5 0 8.5C0 8.5 0 12.46 0.494232 14.34C0.771002 15.38 1.58154 16.2 2.60954 16.48C4.50739 17 11.9999 17 11.9999 17C11.9999 17 19.5123 17 21.3904 16.5C22.4184 16.22 23.2289 15.4 23.5057 14.36C23.9999 12.46 23.9999 8.52 23.9999 8.52C23.9999 8.52 24.0197 4.56 23.5057 2.66Z"/><path fill="white" d="M9.60938 12.1399L15.8565 8.49986L9.60938 4.85986V12.1399Z"/>
	</symbol>

	<!-- Blog page -->
	<symbol id="icon-blog-clock" viewBox="0 0 22 26" fill="none">
		<circle cx="11" cy="15.5" r="10" stroke="#8F8F8F"/><path fill="#8F8F8F" d="M10.5 15.5C10.5 15.7761 10.7239 16 11 16C11.2761 16 11.5 15.7761 11.5 15.5L10.5 15.5ZM11.5 11.75C11.5 11.4739 11.2761 11.25 11 11.25C10.7239 11.25 10.5 11.4739 10.5 11.75L11.5 11.75ZM11.5 15.5L11.5 11.75L10.5 11.75L10.5 15.5L11.5 15.5Z"/><path fill="#8F8F8F" d="M17.5214 7.02145C17.3262 7.21671 17.3262 7.5333 17.5214 7.72856C17.7167 7.92382 18.0333 7.92382 18.2286 7.72856L17.5214 7.02145ZM20.1036 5.85355C20.2988 5.65829 20.2988 5.34171 20.1036 5.14645C19.9083 4.95118 19.5917 4.95118 19.3965 5.14645L20.1036 5.85355ZM18.2286 7.72856L20.1036 5.85355L19.3965 5.14645L17.5214 7.02145L18.2286 7.72856Z"/><path stroke="#8F8F8F" stroke-linecap="round" d="M8.58519 0.963238C8.72762 0.830342 9.04149 0.71291 9.4781 0.629154C9.91471 0.545398 10.4497 0.5 11 0.5C11.5503 0.5 12.0853 0.545398 12.5219 0.629154C12.9585 0.71291 13.2724 0.830342 13.4148 0.963238"/>
	</symbol>

	<!-- External link -->
	<symbol id="icon-external-link" viewBox="0 0 16 16" fill="none">
		<path d="M14 2V1.5H14.5V2H14ZM7.35355 9.35355C7.15829 9.54882 6.84171 9.54882 6.64645 9.35355C6.45118 9.15829 6.45118 8.84171 6.64645 8.64645L7.35355 9.35355ZM13.5 7.6V2H14.5V7.6H13.5ZM14 2.5H8.4V1.5H14V2.5ZM14.3536 2.35355L7.35355 9.35355L6.64645 8.64645L13.6464 1.64645L14.3536 2.35355Z" fill="#131313"/>
		<path d="M13 10.5625V10.5625C13 10.9688 13 11.172 12.9803 11.3429C12.821 12.7281 11.7281 13.821 10.3429 13.9803C10.172 14 9.96883 14 9.5625 14H7.5C5.15442 14 3.98164 14 3.17372 13.3801C2.96572 13.2205 2.77954 13.0343 2.61994 12.8263C2 12.0184 2 10.8456 2 8.5V6.4375C2 6.03117 2 5.82801 2.01966 5.65714C2.17902 4.27186 3.27186 3.17902 4.65714 3.01966C4.82801 3 5.03117 3 5.4375 3V3" stroke="#131313" stroke-linecap="round"/>
	</symbol>

	<!-- Arrow link -->
	<symbol id="icon-arrow-link" width="10" height="11" viewBox="0 0 10 11">
		<path d="M0.635294 9.65796C0.446392 9.85938 0.456541 10.1758 0.657962 10.3647C0.859384 10.5536 1.1758 10.5435 1.36471 10.342L0.635294 9.65796ZM9.70865 1.23103C9.69979 0.955034 9.46887 0.738467 9.19287 0.74732L4.69519 0.891578C4.41919 0.90043 4.20262 1.13135 4.21147 1.40735C4.22033 1.68335 4.45124 1.89992 4.72725 1.89106L8.72519 1.76283L8.85342 5.76078C8.86227 6.03678 9.09319 6.25335 9.36919 6.24449C9.64519 6.23564 9.86176 6.00472 9.85291 5.72872L9.70865 1.23103ZM1.36471 10.342L9.57361 1.5891L8.8442 0.905025L0.635294 9.65796L1.36471 10.342Z"/>
	</symbol>

	<!-- Logo Instagram -->
	<symbol id="icon-logo-instagram" viewBox="0 0 26 26">
		<path d="M13 7.25C11.8628 7.25 10.7511 7.58723 9.80547 8.21905C8.85989 8.85087 8.1229 9.74889 7.68769 10.7996C7.25249 11.8502 7.13862 13.0064 7.36049 14.1218C7.58235 15.2372 8.12998 16.2617 8.93414 17.0659C9.73829 17.87 10.7628 18.4177 11.8782 18.6395C12.9936 18.8614 14.1498 18.7475 15.2004 18.3123C16.2511 17.8771 17.1491 17.1401 17.781 16.1945C18.4128 15.2489 18.75 14.1372 18.75 13C18.75 11.475 18.1442 10.0125 17.0659 8.93414C15.9875 7.8558 14.525 7.25 13 7.25ZM13 17.25C12.1594 17.25 11.3377 17.0007 10.6388 16.5337C9.93992 16.0668 9.39518 15.403 9.07351 14.6264C8.75184 13.8498 8.66768 12.9953 8.83166 12.1709C8.99565 11.3464 9.40042 10.5892 9.9948 9.9948C10.5892 9.40042 11.3464 8.99565 12.1709 8.83166C12.9953 8.66768 13.8498 8.75184 14.6264 9.07351C15.403 9.39518 16.0668 9.93992 16.5337 10.6388C17.0007 11.3377 17.25 12.1594 17.25 13C17.2467 14.1262 16.7979 15.2052 16.0016 16.0016C15.2052 16.7979 14.1262 17.2467 13 17.25ZM18.5 0.75H7.5C5.70979 0.75 3.9929 1.46116 2.72703 2.72703C1.46116 3.9929 0.75 5.70979 0.75 7.5V18.5C0.75 20.2902 1.46116 22.0071 2.72703 23.273C3.9929 24.5388 5.70979 25.25 7.5 25.25H18.5C20.2902 25.25 22.0071 24.5388 23.273 23.273C24.5388 22.0071 25.25 20.2902 25.25 18.5V7.5C25.25 5.70979 24.5388 3.9929 23.273 2.72703C22.0071 1.46116 20.2902 0.75 18.5 0.75ZM23.75 18.5C23.75 19.8924 23.1969 21.2277 22.2123 22.2123C21.2277 23.1969 19.8924 23.75 18.5 23.75H7.5C6.10761 23.75 4.77225 23.1969 3.78769 22.2123C2.80312 21.2277 2.25 19.8924 2.25 18.5V7.5C2.25 6.10761 2.80312 4.77225 3.78769 3.78769C4.77225 2.80312 6.10761 2.25 7.5 2.25H18.5C19.8924 2.25 21.2277 2.80312 22.2123 3.78769C23.1969 4.77225 23.75 6.10761 23.75 7.5V18.5ZM20.75 6.5C20.75 6.74723 20.6767 6.9889 20.5393 7.19446C20.402 7.40002 20.2068 7.56024 19.9784 7.65485C19.7499 7.74946 19.4986 7.77421 19.2561 7.72598C19.0137 7.67775 18.7909 7.5587 18.6161 7.38388C18.4413 7.20907 18.3223 6.98634 18.274 6.74386C18.2258 6.50139 18.2505 6.25005 18.3451 6.02165C18.4398 5.79324 18.6 5.59801 18.8055 5.46066C19.0111 5.32331 19.2528 5.25 19.5 5.25C19.8315 5.25 20.1495 5.3817 20.3839 5.61612C20.6183 5.85054 20.75 6.16848 20.75 6.5Z"/>
	</symbol>

	<!-- Logo VK -->
	<symbol id="icon-logo-vk" viewBox="0 0 32 20">
		<path d="M26.1495 9.54042L26.5547 9.8334L26.1495 9.54044L26.1408 9.55248L26.1328 9.56502L26.126 9.57577C25.957 9.84124 25.7527 10.1623 25.7228 10.5306C25.6893 10.943 25.8714 11.3036 26.1567 11.6656C26.3686 11.9531 26.7801 12.3488 27.1938 12.7466L27.2476 12.7983C27.7055 13.2388 28.1979 13.7141 28.5879 14.1665L28.5878 14.1666L28.5957 14.1753C29.3439 15.0032 29.9911 15.7561 30.4883 16.4169C30.9896 17.083 31.3095 17.6182 31.4427 18.0186C31.5573 18.4098 31.4775 18.5694 31.4207 18.6341C31.3452 18.7201 31.1463 18.8307 30.7067 18.8307H27.2067C26.9452 18.8307 26.7497 18.7813 26.5647 18.6863C26.3693 18.5858 26.1633 18.4231 25.8965 18.1603C25.6793 17.9464 25.442 17.6871 25.1488 17.3666C25.0788 17.2902 25.0057 17.2103 24.9289 17.1267C24.535 16.6979 24.0591 16.1883 23.4571 15.5967L23.4572 15.5967L23.4504 15.5903C21.3632 13.6143 20.3487 13.2307 19.62 13.2307C19.2606 13.2307 18.8102 13.2693 18.5108 13.6346C18.3699 13.8066 18.2973 14.0106 18.2573 14.2142C18.2175 14.4171 18.204 14.6505 18.204 14.9094L18.204 17.9934C18.204 18.3706 18.1419 18.4774 18.0134 18.562C17.8032 18.7005 17.3171 18.8307 16.204 18.8307C12.6884 18.8307 8.75495 16.7267 5.93452 12.7495L5.93455 12.7495L5.9312 12.7449C3.78353 9.78828 2.42076 7.19866 1.59654 5.24427C1.18431 4.26679 0.907717 3.45039 0.734994 2.82849C0.558193 2.19191 0.5 1.79349 0.5 1.6374C0.5 1.43504 0.54165 1.35069 0.583013 1.30827C0.62442 1.26579 0.765168 1.16406 1.2 1.16406L4.70267 1.16406C5.07593 1.16406 5.24517 1.2423 5.35917 1.34566C5.49745 1.47102 5.63131 1.70112 5.79315 2.16584L5.79337 2.16647C6.66262 4.65178 7.8297 6.98242 8.93586 8.69921C9.48802 9.55619 10.0339 10.2741 10.5295 10.7843C10.7769 11.0389 11.0229 11.2535 11.2614 11.4077C11.491 11.5562 11.7634 11.6814 12.052 11.6814C12.1945 11.6814 12.3706 11.6665 12.5439 11.5897C12.7314 11.5066 12.8771 11.3686 12.9792 11.1875C13.1573 10.8717 13.2013 10.4204 13.2013 9.8694L13.2013 4.8054V4.79153L13.2006 4.77769C13.1299 3.50412 12.7422 2.78041 12.3578 2.26692C12.2722 2.15265 12.188 2.05029 12.1163 1.96307L12.1028 1.94668C12.0249 1.85196 11.9663 1.77973 11.9186 1.71202C11.8287 1.58425 11.8107 1.51776 11.8107 1.45473C11.8107 1.35689 11.91 1.16406 12.2013 1.16406L17.7053 1.16406C17.9908 1.16406 18.0524 1.23556 18.0757 1.26682C18.1279 1.33685 18.192 1.51156 18.192 1.92806V8.74006C18.192 9.58189 18.6114 10.2241 19.2493 10.2241C19.9308 10.2241 20.443 9.79922 21.232 9.02318L21.2417 9.01357L21.251 9.00343C22.5518 7.57531 23.6498 5.77685 24.4177 4.35117C24.8032 3.63538 25.1089 3.00734 25.3184 2.55763C25.4232 2.33268 25.5041 2.15208 25.559 2.02711C25.5865 1.96462 25.6074 1.91603 25.6217 1.88273L25.638 1.84443L25.6423 1.83425C25.7314 1.6309 25.8432 1.47131 25.9922 1.36072C26.1362 1.25382 26.3532 1.16406 26.7067 1.16406L30.2067 1.16406C30.6764 1.16406 30.7899 1.28504 30.8098 1.31302C30.8262 1.33604 30.8533 1.39811 30.8416 1.52912L30.7772 1.81991C30.6836 2.24216 30.3681 2.9295 29.9046 3.76648C29.4502 4.58692 28.8824 5.50142 28.3243 6.35967C27.767 7.21686 27.2229 8.01259 26.8179 8.59433C26.6155 8.88507 26.4481 9.12204 26.3314 9.28614C26.2731 9.36819 26.2274 9.432 26.1964 9.47518L26.1612 9.52418L26.1523 9.53652L26.1501 9.53955L26.1496 9.54026L26.1495 9.54042Z"/>
	</symbol>

	<!-- Logo Twitter -->
	<symbol id="icon-logo-twitter" viewBox="0 0 31 26">
		<path d="M26.7013 4.1317L27.0175 5.0572C27.7229 4.97267 28.41 4.83278 29.0753 4.6412C28.4937 5.29321 27.8423 5.88169 27.1317 6.3956L26.913 6.5537L26.9252 6.82323C26.9369 7.08319 26.9433 7.34499 26.9433 7.60342C26.9433 15.5964 20.8631 24.7754 9.77 24.7754H9.76944C7.17073 24.7783 4.61498 24.1879 2.29333 23.0601C5.00341 22.9467 7.61509 21.9854 9.75608 20.3047L10.8611 19.4373L9.4565 19.4115C8.26467 19.3897 7.1095 18.9957 6.15272 18.2847C5.41401 17.7357 4.82211 17.019 4.4228 16.1986C5.14749 16.2408 5.87621 16.166 6.58062 15.9754L6.54903 15.0027C5.25627 14.7414 4.09369 14.041 3.25857 13.0202C2.57889 12.1893 2.15019 11.1879 2.01421 10.1329C2.72989 10.4161 3.49113 10.5746 4.26477 10.5992L6.01258 10.6548L4.55835 9.68362C3.77634 9.16137 3.13532 8.45417 2.69217 7.62477C2.24903 6.79537 2.01745 5.86941 2.018 4.92904V4.92875C2.018 4.14163 2.17795 3.39101 2.46665 2.7067C3.97982 4.41517 5.80347 5.82452 7.84314 6.85859C10.1113 8.00848 12.5958 8.6686 15.1356 8.79612L15.7992 8.82945L15.6474 8.18254C15.36 6.95742 15.485 5.67167 16.0032 4.5249C16.5213 3.37814 17.4036 2.43452 18.513 1.84056C19.6224 1.24659 20.8968 1.0355 22.1385 1.24007C23.3801 1.44464 24.5195 2.05341 25.3797 2.97188L25.5691 3.17409L25.841 3.12072C26.8018 2.93211 27.7365 2.63502 28.6273 2.23621C28.1492 3.00702 27.4911 3.65912 26.7013 4.1317Z"/>
	</symbol>

	<!-- Logo Telegram -->
	<symbol id="icon-logo-telegram" viewBox="0 0 32 32">
		<path stroke-linecap="round" stroke-linejoin="round" d="M29.578,5.71228,2.42205,15.41082l7.75884,3.87941L22.73626,12.033l-8.676,9.197,11.63829,7.75885Z"/>
	</symbol>

	<!-- Play -->
	<symbol id="icon-play" viewBox="0 0 13 15">
		<path d="M13 7.49989L0.25 14.8611L0.25 0.138672L13 7.49989Z"/>
	</symbol>

	<!-- Arrow bottom -->
	<symbol id="icon-play" viewBox="0 0 10 6">
		<path d="M5 5L5.35355 5.35355L5 5.70711L4.64645 5.35355L5 5ZM9.35355 1.35355L5.35355 5.35355L4.64645 4.64645L8.64645 0.646446L9.35355 1.35355ZM4.64645 5.35355L0.646446 1.35355L1.35355 0.646447L5.35355 4.64645L4.64645 5.35355Z"/>
	</symbol>

	<!-- Arrow down -->
	<symbol id="icon-arrow-down" viewBox="0 0 24 24">
		<path d="M0.469669914,0.469669914 C0.735936477,0.203403352 1.15260016,0.1791973 1.44621165,0.397051761 L1.53033009,0.469669914 L8,6.939 L14.4696699,0.469669914 C14.7359365,0.203403352 15.1526002,0.1791973 15.4462117,0.397051761 L15.5303301,0.469669914 C15.7965966,0.735936477 15.8208027,1.15260016 15.6029482,1.44621165 L15.5303301,1.53033009 L8.53033009,8.53033009 C8.26406352,8.79659665 7.84739984,8.8208027 7.55378835,8.60294824 L7.46966991,8.53033009 L0.469669914,1.53033009 C0.176776695,1.23743687 0.176776695,0.762563133 0.469669914,0.469669914 Z" transform="translate(4 7.5)"/>
	</symbol>

	<!-- Arrow up -->
	<symbol id="icon-arrow-up" viewBox="0 0 24 24">
		<path d="M0.469669914,0.469669914 C0.735936477,0.203403352 1.15260016,0.1791973 1.44621165,0.397051761 L1.53033009,0.469669914 L8,6.939 L14.4696699,0.469669914 C14.7359365,0.203403352 15.1526002,0.1791973 15.4462117,0.397051761 L15.5303301,0.469669914 C15.7965966,0.735936477 15.8208027,1.15260016 15.6029482,1.44621165 L15.5303301,1.53033009 L8.53033009,8.53033009 C8.26406352,8.79659665 7.84739984,8.8208027 7.55378835,8.60294824 L7.46966991,8.53033009 L0.469669914,1.53033009 C0.176776695,1.23743687 0.176776695,0.762563133 0.469669914,0.469669914 Z" transform="rotate(-180 10 8.25)"/>
	</symbol>

	<!-- Blog author -->
	<symbol id="icon-blog-author" viewBox="0 0 24 24">
		<path d="M15.8399,16.1931 C15.8399,19.4891 11.3199,19.8701 7.9209,19.8701 L7.67766371,19.8698897 C5.51210414,19.8646311 -0.0001,19.7279077 -0.0001,16.1731 C-0.0001,12.9443653 4.33825235,12.5128651 7.71138402,12.4965976 L8.16412764,12.4963103 C10.329545,12.5015689 15.8399,12.6382923 15.8399,16.1931 Z M7.9209,13.9961 C3.6599,13.9961 1.4999,14.7281 1.4999,16.1731 C1.4999,17.6311 3.6599,18.3701 7.9209,18.3701 C12.1809,18.3701 14.3399,17.6381 14.3399,16.1931 C14.3399,14.7351 12.1809,13.9961 7.9209,13.9961 Z M7.9209,-0.0003 C10.8489,-0.0003 13.2299,2.3817 13.2299,5.3097 C13.2299,8.2377 10.8489,10.6187 7.9209,10.6187 L7.8889,10.6187 C4.9669,10.6097 2.5999,8.2267 2.60986843,5.3067 C2.60986843,2.3817 4.9919,-0.0003 7.9209,-0.0003 Z M7.9209,1.4277 C5.7799,1.4277 4.03787882,3.1687 4.03787882,5.3097 C4.0309,7.4437 5.7599,9.1837 7.8919,9.1917 L7.9209,9.9057 L7.9209,9.1917 C10.0609,9.1917 11.8019,7.4497 11.8019,5.3097 C11.8019,3.1687 10.0609,1.4277 7.9209,1.4277 Z" transform="translate(4 2)"/>
	</symbol>

	<!-- Blog time -->
	<symbol id="icon-blog-time" viewBox="0 0 24 24">
		<path d="M10,0 C15.514,0 20,4.486 20,10 C20,15.514 15.514,20 10,20 C4.486,20 0,15.514 0,10 C0,4.486 4.486,0 10,0 Z M10,1.5 C5.313,1.5 1.5,5.313 1.5,10 C1.5,14.687 5.313,18.5 10,18.5 C14.687,18.5 18.5,14.687 18.5,10 C18.5,5.313 14.687,1.5 10,1.5 Z M9.6612,5.0954 C10.0762,5.0954 10.4112,5.4314 10.4112,5.8454 L10.4112,10.2674 L13.8162,12.2974 C14.1712,12.5104 14.2882,12.9704 14.0762,13.3264 C13.9352,13.5614 13.6862,13.6924 13.4312,13.6924 C13.3002,13.6924 13.1682,13.6584 13.0472,13.5874 L9.2772,11.3384 C9.0512,11.2024 8.9112,10.9574 8.9112,10.6934 L8.9112,5.8454 C8.9112,5.4314 9.2472,5.0954 9.6612,5.0954 Z" transform="translate(2 2)"/>
	</symbol>
</svg>