<svg width="33"  height="40" viewBox="0 0 33 40" fill="none" xmlns="http://www.w3.org/2000/svg">
<path d="M31.4641 7.3913C28.8491 7.03934 26.317 6.27329 23.9509 5.13458C21.1698 3.80952 17.4962 0.910973 17.4547 0.890269L16.334 0L15.2755 0.952381C13.4075 2.6501 11.3113 4.05797 9.04906 5.13458C6.68302 6.27329 4.15094 7.01863 1.53585 7.3913L0 7.59834L0.103774 9.15114C0.166038 10.2692 0.269811 11.3665 0.435849 12.4638L2.46981 13.913L0.767924 14.5549C1.57736 18.8199 3.05094 22.9607 5.10566 26.7288C7.7 31.4907 11.1453 35.6522 15.3585 39.089L16.4585 40L17.5377 39.0476C17.7868 38.8406 22.8094 34.3892 26.317 29.3168L25.8396 28.0331L25.9434 27.8882L26.8358 28.53C27.2302 27.9296 27.583 27.3292 27.9151 26.7288C28.3717 25.8799 28.8075 25.0311 29.2019 24.1615L27.0434 22.9607L29.8245 22.7122C31.5887 18.4058 32.6472 13.7888 32.917 9.13043L33 7.57764L31.4641 7.3913ZM21.1906 8.79917C21.1906 9.00621 21.1491 9.06832 20.6509 11.0145C20.3811 12.0704 20.1528 12.94 20.0075 13.499C19.5717 13.4369 19.1358 13.354 18.7208 13.2919C18.6792 13.7888 18.6377 14.2857 18.617 14.7619C19.8623 15.3002 21.1075 15.8178 22.3736 16.3561C23.3283 19.1304 24.283 21.8841 25.2377 24.6584C25.1547 24.824 25.0717 24.9689 24.9887 25.1346C24.7189 25.6315 24.4283 26.1077 24.117 26.6046C23.4736 25.0932 22.9755 23.9959 22.2698 22.7329C22.4566 24.265 22.6849 26.2733 22.8925 28.3851C20.6509 31.4079 17.8906 34.1615 16.417 35.5694C14.8396 34.1822 13.3868 32.6708 12.0585 31.0559C12.1623 30.8903 12.266 30.7246 12.3698 30.559C13.034 29.5238 13.3038 29.1718 13.5113 28.7785L13.8226 28.5507L13.6566 28.4472C14.2585 26.9565 14.2377 24.472 11.4981 20.2484C11.1038 20.8489 10.4811 21.7391 9.75472 22.8571C9.00755 23.9752 8.50943 24.7412 8.1566 25.3002C8.13585 25.2588 8.11509 25.2174 8.09434 25.176C7.63774 24.3271 7.20189 23.4369 6.80755 22.5466C6.93208 22.3602 7.07736 22.1739 7.20189 21.9876C9.15283 19.234 10.4396 16.6046 11.3113 14.4928C12.5358 14.3064 13.7811 14.1201 15.0057 13.9544V11.9462C15.0057 11.9462 13.1377 11.1801 13.1377 8.38509C13.1377 7.68116 13.2623 7.08075 13.4906 6.60456C14.4453 6.00414 15.3585 5.36232 16.2302 4.65838C16.3962 4.61698 16.5623 4.59627 16.7075 4.57557L20.817 7.16356C21.066 7.68116 21.2113 8.28157 21.1906 8.79917ZM8.8 26.4182C9.09057 25.9627 9.50566 25.3209 10.1491 24.3478L10.8962 26.6046L10.1906 26.1491L11.3736 29.8551C11.3528 29.8758 11.3528 29.8965 11.3321 29.9172C11.2906 29.9586 11.2698 30.0207 11.2283 30.0621C10.3566 28.882 9.54717 27.6812 8.8 26.4182ZM10.5226 8.15735C11.0208 7.92961 11.5189 7.66046 11.9962 7.3913C11.9547 7.68116 11.934 7.99172 11.934 8.30228C11.934 10.6625 13.034 11.9255 13.8019 12.5259V12.8778L12.2868 13.1056L11.4981 13.2298L10.2321 9.02692L10.9792 13.3126L10.4396 13.3954L10.1906 14.0166C9.79623 14.9689 9.36038 15.9213 8.88302 16.853L5.58302 10.559L8.13585 18.2195C7.55472 19.2547 6.91132 20.2484 6.24717 21.2215C4.8566 17.7847 3.96415 14.1408 3.59057 10.4348C5.97736 9.9793 8.30189 9.21325 10.5226 8.15735ZM25.9434 23.1677L25.5075 21.9048L26.6698 20.207L25.2585 21.1801L25.1547 20.8696L25.0094 20.4348L27.6245 13.2298L24.3453 18.5507L23.4736 15.9834L23.4321 15.8799L25.134 9.56522L22.8094 15.2795L21.7925 14.8447L21.9377 13.4576L21.4811 14.7205L20.9623 14.4928L21.1491 13.8095C21.2943 13.2298 21.5226 12.381 21.7925 11.3251C21.8962 10.9524 21.9792 10.6625 22.0415 10.4141C22.3528 9.23395 22.3736 9.15114 22.3736 8.84058C22.3736 8.59213 22.3528 8.34369 22.3113 8.07453L22.4774 8.17805C24.6774 9.23395 27.0226 10 29.4094 10.4555C29.0151 14.8447 27.8321 19.1925 25.9434 23.1677Z" fill="#01CC65"/>
<path d="M17.2301 8.1C17.1239 8.1 17.0531 8.125 17 8.125C17.177 8.175 17.3363 8.2 17.5133 8.25C17.5133 8.25 17.6549 8.675 17.9911 8.9C18.3274 9.125 19 8.9 19 8.9C19 8.9 18.469 8.175 18.3097 8.025C18.2389 7.975 18.1327 8 17.2301 8.1Z" fill="#01CC65"/>
</svg>
