<svg width="15" height="14" viewBox="0 0 15 14" fill="none" xmlns="http://www.w3.org/2000/svg">
<path d="M14.6866 0.227731C14.4316 0.0114912 14.0311 -0.0194488 13.617 0.146811H13.6163C13.1808 0.321571 1.28757 5.42293 0.80341 5.63135C0.71535 5.66195 -0.0537296 5.94891 0.0254904 6.58811C0.0962104 7.16441 0.71433 7.40309 0.78981 7.43063L3.81343 8.46593C4.01403 9.13369 4.75353 11.5973 4.91707 12.1237C5.01907 12.4518 5.18533 12.8829 5.47671 12.9716C5.73239 13.0702 5.98671 12.9801 6.15127 12.8509L7.99985 11.1363L10.984 13.4636L11.0551 13.5061C11.2577 13.5959 11.4519 13.6407 11.6372 13.6407C11.7803 13.6407 11.9177 13.6139 12.0489 13.5602C12.496 13.3766 12.6749 12.9505 12.6936 12.9023L14.9226 1.31607C15.0586 0.697271 14.8696 0.382431 14.6866 0.227731ZM6.48005 8.88005L5.46005 11.6001L4.44005 8.20005L12.2601 2.42005L6.48005 8.88005Z" fill="#969696"/>
</svg>
