<svg width="76" height="25" viewBox="0 0 76 25" fill="none" xmlns="http://www.w3.org/2000/svg">
<path d="M30.3784 0.471436L26.5234 24.2006H32.6889L36.5471 0.471436H30.3784Z" fill="#2562FF"/>
<path d="M21.3503 0.498032L15.3117 16.6806L14.6679 14.2372C13.477 11.2931 10.0961 7.06487 6.12695 4.40021L11.6486 24.1889L18.1725 24.1772L27.8821 0.493042L21.3503 0.498032Z" fill="#2562FF"/>
<path d="M12.3246 2.19624C11.9662 0.7508 10.9275 0.319996 9.6383 0.268433H0.0792884L0 0.74082C7.43884 2.63369 12.3611 7.19455 14.4035 12.6786L12.3246 2.19624Z" fill="#FFBA00"/>
<path d="M49.0388 5.02058C51.0559 4.98731 52.518 5.44972 53.6534 5.92876L54.21 6.20321L55.0441 1.06018C53.8231 0.579475 51.9091 0.0638428 49.5209 0.0638428C43.4284 0.0638428 39.1341 3.28239 39.1008 7.89481C39.0612 11.303 42.1598 13.2058 44.5004 14.3419C46.9028 15.5062 47.7084 16.2464 47.6973 17.286C47.6782 18.8745 45.7817 19.603 44.0104 19.603C41.5413 19.603 40.2299 19.2454 38.2049 18.3605L37.4104 17.9813L36.543 23.2923C37.986 23.956 40.6485 24.5265 43.4125 24.5564C49.8936 24.5564 54.1054 21.3761 54.1498 16.4477C54.1767 13.7514 52.5323 11.6939 48.9691 10.0056C46.8124 8.90446 45.493 8.17259 45.5057 7.06149C45.5057 6.07513 46.6253 5.02058 49.0388 5.02058Z" fill="#2562FF"/>
<path d="M70.8692 0.497925H66.1056C64.626 0.497925 63.5255 0.920412 62.8753 2.46731L53.7207 24.2137H60.1954C60.1954 24.2137 61.2515 21.2896 61.491 20.6492C62.1998 20.6492 68.4906 20.6592 69.3865 20.6592C69.5705 21.4875 70.1382 24.2137 70.1382 24.2137H75.858L70.8692 0.497925ZM63.2654 15.7923C63.7729 14.43 65.7218 9.16057 65.7218 9.16057C65.6885 9.22544 66.2245 7.78831 66.5432 6.8951L66.9587 8.94101C66.9587 8.94101 68.1401 14.6063 68.3875 15.7923H63.2654Z" fill="#2562FF"/>
</svg>
