<svg width="49" height="16" viewBox="0 0 49 16" fill="none" xmlns="http://www.w3.org/2000/svg">
<path d="M19.3638 0.804932L16.9062 15.2265H20.8366L23.2962 0.804932H19.3638Z" fill="#2562FF"/>
<path d="M13.6101 0.821148L9.76062 10.6562L9.35019 9.17122C8.591 7.38192 6.43575 4.8122 3.90546 3.19273L7.42543 15.2195L11.5843 15.2124L17.7741 0.818115L13.6101 0.821148Z" fill="#2562FF"/>
<path d="M7.85675 1.85304C7.62829 0.974559 6.96615 0.712735 6.14428 0.681396H0.0505453L0 0.968494C4.74216 2.1189 7.88001 4.89081 9.18205 8.22376L7.85675 1.85304Z" fill="#FFBA00"/>
<path d="M31.2618 3.56963C32.5477 3.54941 33.4798 3.83044 34.2036 4.12158L34.5584 4.28838L35.0901 1.16266C34.3117 0.870509 33.0916 0.557129 31.5691 0.557129C27.6852 0.557129 24.9477 2.51323 24.9265 5.31647C24.9012 7.38781 26.8765 8.54429 28.3686 9.23474C29.9001 9.94237 30.4137 10.3922 30.4066 11.024C30.3945 11.9895 29.1854 12.4322 28.0563 12.4322C26.4823 12.4322 25.6463 12.2149 24.3553 11.6771L23.8489 11.4466L23.2959 14.6744C24.2158 15.0778 25.9131 15.4245 27.6751 15.4427C31.8067 15.4427 34.4917 13.5099 34.52 10.5145C34.5372 8.87587 33.4889 7.62538 31.2174 6.59931C29.8425 5.93009 29.0014 5.48529 29.0095 4.81001C29.0095 4.21054 29.7232 3.56963 31.2618 3.56963Z" fill="#2562FF"/>
<path d="M45.1785 0.821045H42.1417C41.1986 0.821045 40.497 1.07781 40.0825 2.01796L34.2466 15.2345H38.3741C38.3741 15.2345 39.0474 13.4574 39.2 13.0682C39.6519 13.0682 43.6622 13.0742 44.2333 13.0742C44.3506 13.5777 44.7125 15.2345 44.7125 15.2345H48.3588L45.1785 0.821045ZM40.3312 10.1163C40.6547 9.28839 41.8971 6.08584 41.8971 6.08584C41.8759 6.12526 42.2176 5.25184 42.4208 4.70898L42.6856 5.9524C42.6856 5.9524 43.4387 9.39554 43.5964 10.1163H40.3312Z" fill="#2562FF"/>
</svg>
