<svg width="38" height="28" viewBox="0 0 38 28" fill="none" xmlns="http://www.w3.org/2000/svg">
<path d="M36.6611 4.8125C36.3125 2.88818 34.6514 1.48682 32.7236 1.04932C29.8389 0.4375 24.5 0 18.7236 0C12.9507 0 7.52637 0.4375 4.63818 1.04932C2.71387 1.48682 1.04932 2.79932 0.700683 4.8125C0.348633 7 0 10.0625 0 14C0 17.9375 0.348633 21 0.786133 23.1875C1.13818 25.1118 2.79932 26.5132 4.72363 26.9507C7.78613 27.5625 13.0361 28 18.8125 28C24.5889 28 29.8389 27.5625 32.9014 26.9507C34.8257 26.5132 36.4868 25.2007 36.8389 23.1875C37.1875 21 37.625 17.8486 37.7139 14C37.5361 10.0625 37.0986 7 36.6611 4.8125ZM14 20.125V7.875L24.6743 14L14 20.125Z" fill="#5C5B5B"/>
</svg>
